<svg xmlns="http://www.w3.org/2000/svg" width="173" height="209"><path fill="#FFF" d="M36.91 46.364c-13.637 1.817-23.638 13.181-23.638 26.817 0 10.456 5.911 20 15.457 24.545 1.363.455 2.273 1.82 2.726 3.638 3.183 22.728 4.545 45.455 5 67.729h100.002c0-22.274 1.815-45.002 4.998-67.729 0-1.365 1.363-2.728 2.726-3.638 9.548-4.545 15.456-14.089 15.456-24.545 0-13.636-10-25-23.637-26.817-1.363 0-2.726-1.363-3.636-2.728C123.273 25.455 105.545 14.091 86 14.091c-19.544 0-37.271 11.364-45.455 29.545-.907 1.365-2.273 2.273-3.635 2.728"/><path fill="#9FBDD3" d="M135.09 46.364c-1.362 0-2.726-.91-3.635-2.728-7.728-18.181-25.91-29.545-45.455-29.545 11.816 5.911 21.817 17.274 27.272 29.545.453 1.365 1.815 2.273 3.636 2.728 13.637 1.817 23.637 13.181 23.637 26.817 0 10.456-5.908 20-15.456 24.545-1.362.455-2.272 1.82-2.272 3.183-.453 2.272-9.544-5-9.544-5V73.182c0-6.363-2.272-12.271-5.908-16.816.905 2.725 1.363 5.908 1.363 9.091 0 16.816-13.637 30.908-30.911 30.908-2.728 0-5-.455-7.726-.91-3.638-1.363-7.273-2.726-9.546-3.181 4.545-5 7.273-11.363 7.273-18.182 0-6.363-2.273-12.273-5.911-16.819.91 2.728 1.365 5.911 1.365 9.091 0 16.819-13.636 30.91-30.91 30.91-3.181 0-5.908-.455-9.091-1.365 4.545 3.638 10.456 5.91 16.819 5.91 6.818 0-5.91 8.636-8.636 8.184.453 3.178.453 6.36.908 9.091 2.272.453 5 .905 7.728.905 8.181 0 16.364-2.726 22.728-8.181 6.363 5.002 14.544 8.181 22.727 8.181 8.184 0 16.364-2.726 22.725-8.181.91.91 1.82 1.362 2.73 1.82 5.455 3.635 8.634 9.543 8.181 15.908-1.362 13.637-1.819 26.816-1.819 40h18.182c0-16.819.91-33.639 2.729-50.91 0-1.363.453-2.726.453-4.089.457-4.093.91-8.638 1.362-12.729 0-1.365 1.367-2.728 2.273-3.183 9.548-4.545 15.456-14.091 15.456-24.545.911-14.545-9.09-25.908-22.727-27.726"/><path fill="#FFF" d="M31.455 177.728h109.09v18.182H31.455z"/><path fill="#014463" d="M145.091 205H26.909c-2.728 0-4.545-1.82-4.545-4.545v-27.273c0-2.726 1.818-4.545 4.545-4.545h118.182c2.726 0 4.546 1.819 4.546 4.545v27.273c0 2.725-1.821 4.545-4.546 4.545m-113.636-9.091h109.09v-18.182H31.455v18.182z"/><path fill="#9FBDD3" d="M117.818 182.272c0 4.999-4.093 9.091-9.091 9.091H31.455v4.546h109.09v-18.182h-18.182c-2.724.001-4.545 1.82-4.545 4.545"/><path fill="#014463" d="M138.726 37.726C128.725 17.727 108.27 5 86 5 63.726 5 43.271 17.727 33.272 37.726c-16.819 3.183-29.09 18.182-29.09 35.456 0 13.182 6.818 25 18.182 31.363 3.18 23.183 4.545 46.362 4.545 68.637 0 2.726 1.817 4.546 4.545 4.546h109.09c2.727 0 4.546-1.82 4.546-4.546 0-22.274 1.362-45.454 4.546-68.637 11.363-6.363 18.182-18.182 18.182-31.363 0-17.274-12.273-32.273-29.092-35.456m5.455 59.546c-3.636 1.818-8.181 3.183-12.726 3.183-5.456 0-10.911-1.82-15.457-5-.453 0-.453-.455-.91-.455 4.546-5.908 7.275-13.636 7.275-21.817 0-2.728-1.819-4.545-4.545-4.545-2.73 0-4.546 1.818-4.546 4.545 0 14.999-12.273 27.273-27.272 27.273-2.728 0-4.545 1.818-4.545 4.545 0 2.726 1.818 4.545 4.545 4.545 8.634 0 16.819-3.182 23.18-8.183.457.91.91 1.365 1.363 1.818 5.912 4.092 13.184 6.365 20.912 6.365 3.182 0 5.908-.457 8.633-.909-2.272 20.001-4.088 40.456-4.088 60.001h-22.728v-4.093c0-12.274 1.363-24.091 4.546-35.907.453-2.272-.91-5.002-3.183-5.455-2.272-.457-4.999.91-5.456 3.183-3.183 12.27-4.545 25-4.545 38.18v4.093H90.998V127.73c0-2.73-1.815-4.546-4.545-4.546-2.726 0-4.546 1.815-4.546 4.546v40.909H68.271v-4.093c0-12.727-1.363-25.453-4.545-38.18-.453-2.272-3.181-4.093-5.453-3.183-2.273.453-4.091 3.183-3.183 5.455 2.728 11.816 4.545 23.633 4.545 35.907v4.093H36.908c0-19.545-1.363-40-4.09-60.001 2.728.452 5.455.909 8.636.909 9.546 0 18.637-3.635 25.455-10.455 1.818-1.818 1.818-4.546 0-6.363-1.818-1.818-4.545-1.818-6.363 0-5.91 5-12.729 7.728-20 7.728-4.545 0-9.091-1.365-12.729-3.183-9.091-4.545-14.544-14.091-14.544-24.09 0-10.911 6.363-20.001 15.909-24.547-1.365 5-2.272 10.001-2.272 15.456 0 2.726 1.817 4.545 4.545 4.545 2.726 0 4.545-1.82 4.545-4.545 0-8.183 1.818-15.456 5.453-22.274C49.636 25 66.908 14.091 86 14.091c19.545 0 37.273 11.364 45.455 29.545.452 1.363 1.814 2.273 3.635 2.726 13.637 1.82 23.638 13.184 23.638 26.82 0 9.999-5.457 19.089-14.547 24.09"/></svg>