<svg xmlns="http://www.w3.org/2000/svg" viewBox="0 0 140 162" version="1.0"><path d="M101.43 19.191c-4.07-11.945-19.393-7.036-28.499-8.65C65.397 9.206 58.617 3.643 51.1 1.699 36.889-1.977 16.399 4.984 8.376 17.37.203 29.99-.624 48 2.73 62.246c1.233 5.239 4.096 9.918 5.376 15.16 2.366 9.692 3.318 22.17 2.804 32.144-.477 9.24-11.691 24.05-6.21 32.74 3.216 5.11 10.25 7.74 15.473 10.18 14.167 6.62 29.356 8.82 44.773 8.81 5.734 0 16.525-1.83 21.134-5.64 2.404-1.99 1.838-6.32 2.184-9.1.917-7.37.96-16.52 4.733-23.05C102.4 107.24 114.3 92.394 124.76 76.8c4.75-7.091 11.33-15.167 13.34-23.65 2.09-8.835 1.28-22.78-5.36-29.51-7.81-7.91-20.11-7.618-29.9-4.718m-35.974-7.008c-11.82 3.676-19.992 21.68-20.01 33.352C46.713 49.014 45.397 55.86 49.28 58c-1.696-13.427.96-33.512 13.445-41.754 8.603-5.68 28.155-6.62 35.44 1.794 4.515 5.22 4.555 13.437 3.765 19.948-1.29 10.62-10.285 17.6-14.445 26.683 7.588-2.136 16.295-19.048 16.695-26.683.4-7.675-3.25-15.65 6.35-18.236 19.2-5.17 25.99 12.46 25.24 27.676-.82 5.654-3.98 14.144-7.08 19.062-6.94 11.014-13.76 22.965-22.38 32.746-2.75 3.123-10.934 16.683-16.024 10.543-1.742-2.1.516-5.04 1.631-6.9 3.846-6.421 8.213-12.28 11.943-18.803-7.453 3.664-9.102 15.943-16.982 20.613-4.128 2.45-12.333-1.18-13.148-6.068-.833-4.993 2.23-11.597 4.658-15.758-5.443 4.019-4.068 11.665-8.726 15.316-2.44 1.91-6.892.482-9.53-.175-2.837-.705-7.218-1.03-9.273-3.324-1.527-1.704-.968-4.863-.972-6.966a54.8 54.8 0 00-1.819-13.947s1.36 15.31-1.733 19.212c-2.93 3.698-14.917 2.544-15.836-1.638l-1.23-13.936c-1.596 4.378-.21 9.093-1.8 13.33-.96 2.557-6.43 6.146-8.143 2.338-1.548-3.441-.676-9.454-1.036-13.242-.502-5.286-2.237-11.202-3.575-16.373 0 0 1.726 16.042 1.817 23.65.04 3.309-.956 10.692-3.23 7.283-2.522-6.547-1.735-10.472-3.376-17.195-1.232-5.044-3.942-11.157-5.23-16.164-3.375-13.126-2.019-28.73 4.766-40.63 8.74-15.33 32.3-21.37 47.702-14.102 3.203 1.512 7.696 2.55 9.702 5.613M28.662 36.17l.473.805c.716-8.997 6.441-20.968 15.901-23.242-9.33-3.88-19.479 14.93-16.374 22.437M117.2 29.5c2.01 4.896 3.97 9.397 2.95 14.852-.39 4.35-3.19 9.357-4.16 13.649 6.36-5.291 9.35-23.06 1.21-28.501M86.272 149.57c-22.666-11.93-55.408-18.2-80.653-11.52.432-9.46 6.473-17.81 7.22-27.29.253-3.21-.815-9.12 1.63-11.703 3.747-3.957 12.892-2.908 17.832-2.85 16.271.194 34.18 3.229 48.513 11.263 3.646 2.04 9.423 3.9 11.753 7.56 2.074 3.26-1.99 7.23-3.045 10.28-2.43 7.04-3.245 16.8-3.25 24.26m-5.236.75c2.937 1.86 4.788 3.36 2.23 4.91-14.975 7.1-32.69 3.52-47.933-1.91-3.926-1.4-15.235-4.22-14.829-9.79.428-5.88 10.171-4.94 13.895-4.94 16.21.67 31.852 3.72 46.637 11.73z"/></svg>